<svg xmlns="http://www.w3.org/2000/svg" viewBox="0 0 57.07 34.27"><title>Asset 2</title><g id="Layer_2" data-name="Layer 2"><g id="Layer_1-2" data-name="Layer 1"><path d="M28.54,28.25h5.81a.4.4,0,0,1,.27.71L32,31.33l-3.17,2.83a.4.4,0,0,1-.54,0L25.1,31.33,22.45,29a.41.41,0,0,1,.27-.71Z" fill="currentColor"/><path d="M27.52,13.75a13.28,13.28,0,0,1-.5,3.64,13.7,13.7,0,0,1-3.53,6.08,14.12,14.12,0,0,1-2.78,2.16A13.74,13.74,0,0,1,10.12,27a13.86,13.86,0,0,1-3.28-1.4A14.24,14.24,0,0,1,4,23.47,13.74,13.74,0,0,1,.49,17.39,13.27,13.27,0,0,1,0,13.75,13.59,13.59,0,0,1,1.88,6.81a14,14,0,0,1,5-4.94A14.23,14.23,0,0,1,10.12.49a13.84,13.84,0,0,1,7.3,0,14.12,14.12,0,0,1,3.29,1.38A14.12,14.12,0,0,1,23.49,4a13.7,13.7,0,0,1,2.15,2.78A13.24,13.24,0,0,1,27,10.09,13.53,13.53,0,0,1,27.52,13.75Zm-19.75-6A8.39,8.39,0,0,0,6,10.46a8.14,8.14,0,0,0-.67,3.29A8,8,0,0,0,6,17a8.45,8.45,0,0,0,4.5,4.5,8.46,8.46,0,0,0,6.6,0,8.5,8.5,0,0,0,2.69-1.81A8.73,8.73,0,0,0,21.56,17" fill="currentColor"/><path d="M57.07,13.75a13.27,13.27,0,0,1-.49,3.64,14.3,14.3,0,0,1-1.38,3.29,13.49,13.49,0,0,1-2.15,2.79,13.89,13.89,0,0,1-2.79,2.16A13.51,13.51,0,0,1,47,27a13.81,13.81,0,0,1-16.93-9.64,13.27,13.27,0,0,1-.49-3.64,13.59,13.59,0,0,1,1.88-6.94A14.12,14.12,0,0,1,33.6,4a13.68,13.68,0,0,1,2.8-2.16A14.23,14.23,0,0,1,39.68.49a13.84,13.84,0,0,1,7.3,0A13.64,13.64,0,0,1,53.05,4,13.7,13.7,0,0,1,55.2,6.81a14,14,0,0,1,1.38,3.28A13.52,13.52,0,0,1,57.07,13.75ZM35.51,17A8.51,8.51,0,0,0,40,21.52a8.46,8.46,0,0,0,6.6,0,8.5,8.5,0,0,0,2.69-1.81A8.91,8.91,0,0,0,51.12,17a8.17,8.17,0,0,0,.67-3.27,8.31,8.31,0,0,0-.67-3.29,8.55,8.55,0,0,0-1.81-2.69A8.33,8.33,0,0,0,46.62,6" fill="currentColor"/></g></g></svg>